<svg width="48" height="48" viewBox="0 0 48 48" fill="none" xmlns="http://www.w3.org/2000/svg">
<rect width="48" height="48" rx="24" fill="#F6F2FB"/>
<g clip-path="url(#clip0_22_35)">
<path d="M24 24C26.21 24 28 22.21 28 20C28 17.79 26.21 16 24 16C21.79 16 20 17.79 20 20C20 22.21 21.79 24 24 24ZM24 26C21.33 26 16 27.34 16 30V31C16 31.55 16.45 32 17 32H31C31.55 32 32 31.55 32 31V30C32 27.34 26.67 26 24 26Z" fill="#DBCDF1"/>
</g>
<defs>
<clipPath id="clip0_22_35">
<rect width="24" height="24" fill="white" transform="translate(12 12)"/>
</clipPath>
</defs>
</svg>
